<svg xmlns="http://www.w3.org/2000/svg" width="256" height="256" viewBox="0 0 256 256">
  <g fill="#065f46">
    <path d="M128 24c-8 20-20 36-36 48 16 0 30-6 44-16-4 12-10 24-18 34 12-4 24-10 34-18-10 14-16 28-16 44 12-16 28-28 48-36-20 40-52 72-92 92 40-4 76-22 104-50-10 26-26 48-48 64-22 16-48 26-76 30 34-20 62-48 82-82-34 20-62 48-82 82 4-28 14-54 30-76 16-22 38-38 64-48-28 28-46 64-50 104 20-40 52-72 92-92-8 20-20 36-36 48 0-16 6-30 16-44-12 4-24 10-34 18 8-10 14-22 18-34-14 10-28 16-44 16 12-16 28-28 48-36z"/>
  </g>
</svg>