<svg xmlns="http://www.w3.org/2000/svg" width="260" height="260" viewBox="0 0 260 260">
  <g fill="#1e4c39">
    <path d="M130 30c-10 20-26 34-46 42 18 2 34-2 50-10-6 16-14 30-26 42 16-6 30-14 42-26-12 14-20 30-22 48 18-20 40-34 66-40-22 40-54 70-96 88 42-4 80-22 110-50-12 28-30 52-54 70-24 18-52 30-82 34 36-22 66-52 88-88-34 18-64 46-88 80 6-30 18-58 36-82 18-24 42-42 68-54-30 30-50 68-56 110 20-42 52-74 94-96-10 22-26 38-46 48 0-18 6-34 18-48-16 6-30 14-42 26 10-12 18-26 24-40-16 10-32 14-50 12 14-16 32-28 52-34z"/>
  </g>
</svg>